inDegrees=no
num_controls=7
num_derivatives=13
num_iterations=36
num_multipliers=7
num_parameters=0
num_slacks=7
num_states=26
objective=0.449399
objective_accelerations=0.054913
objective_balance=0.006068
objective_effort=0.036314
objective_height=0.347969
objective_ligament=0.004135
solver_duration=586.056018
status=Solve_Succeeded
success=true
DataType=double
version=3
OpenSimVersion=4.5
endheader
time	/jointset/ground_pelvis/pelvis_tilt/value	/jointset/ground_pelvis/pelvis_tx/value	/jointset/ground_pelvis/pelvis_ty/value	/jointset/hip_l/hip_flexion_l/value	/jointset/hip_l/hip_adduction_l/value	/jointset/hip_l/hip_rotation_l/value	/jointset/back/lumbar_extension/value	/jointset/patellofemoral_l/patellar_flexion_l/value	/jointset/knee_l/knee_flexion_l/value	/jointset/knee_l/knee_adduction_l/value	/jointset/knee_l/knee_rotation_l/value	/jointset/ankle_l/ankle_angle_l/value	/jointset/subtalar_l/subtalar_angle_l/value	/jointset/ground_pelvis/pelvis_tilt/speed	/jointset/ground_pelvis/pelvis_tx/speed	/jointset/ground_pelvis/pelvis_ty/speed	/jointset/hip_l/hip_flexion_l/speed	/jointset/hip_l/hip_adduction_l/speed	/jointset/hip_l/hip_rotation_l/speed	/jointset/back/lumbar_extension/speed	/jointset/patellofemoral_l/patellar_flexion_l/speed	/jointset/knee_l/knee_flexion_l/speed	/jointset/knee_l/knee_adduction_l/speed	/jointset/knee_l/knee_rotation_l/speed	/jointset/ankle_l/ankle_angle_l/speed	/jointset/subtalar_l/subtalar_angle_l/speed	/forceset/tau_hip_flexion_l	/forceset/tau_hip_adduction_l	/forceset/tau_hip_rotation_l	/forceset/tau_knee_flexion_l	/forceset/tau_ankle_angle_l	/forceset/tau_subtalar_angle_l	/forceset/tau_lumbar_extension	lambda_cid13_p0	lambda_cid13_p1	lambda_cid13_p2	lambda_cid13_p3	lambda_cid13_p4	lambda_cid13_p5	lambda_cid14_p0	/jointset/ground_pelvis/pelvis_tilt/accel	/jointset/ground_pelvis/pelvis_tx/accel	/jointset/ground_pelvis/pelvis_ty/accel	/jointset/hip_l/hip_flexion_l/accel	/jointset/hip_l/hip_adduction_l/accel	/jointset/hip_l/hip_rotation_l/accel	/jointset/back/lumbar_extension/accel	/jointset/patellofemoral_l/patellar_flexion_l/accel	/jointset/knee_l/knee_flexion_l/accel	/jointset/knee_l/knee_adduction_l/accel	/jointset/knee_l/knee_rotation_l/accel	/jointset/ankle_l/ankle_angle_l/accel	/jointset/subtalar_l/subtalar_angle_l/accel	gamma_cid13_p0	gamma_cid13_p1	gamma_cid13_p2	gamma_cid13_p3	gamma_cid13_p4	gamma_cid13_p5	gamma_cid14_p0
0	-0.1542925043581548	0.05638395515540911	0.8978051348387083	0.3774924667018715	-0.2618598700753055	-0.2254668737361537	-0.01265067647494873	0.03223648243744023	0.03223648243721463	-0.174530578402895	0.1292048173821798	-0.04231377076293093	-0.01254118431319449	0	0	0	0	0	0	0	0	0	0	0	0	0	0.1268185961738109	-0.005886531115950098	-0.03750260130263507	-0.2622257741960474	0.2514479820683048	-0.08152711261159598	-0.07856329392055211	37.20120975542149	23.37921834814004	2.169001716931614	12.93705315888251	-588.8042915244569	-24.7726167292975	-37.73815596762526	-3.962609686156792	-2.378726632140329	-1.107635990013897	13.27882754108189	-0.4721495392835366	3.443856425492391	-5.563366438069847	10.22773495581407	10.22773495581397	1.464584082971998	-0.0131172337146679	1.442536771894814	-0.184649455719046	8.479519665420596e-08	9.379332248358215e-07	-4.705381149423861e-07	-2.302846559811932e-08	5.407422200473699e-07	6.019808402156456e-07	1.259023056102794e-07
0.01	-0.1544831650236808	0.05627294934914071	0.8977516130445145	0.3781298882378709	-0.261887146663342	-0.2252974950828024	-0.0129282379323524	0.03273462831707404	0.03273462831612992	-0.1744675540452712	0.1292033155644618	-0.04223780526445764	-0.01255305759242512	-0.03786586448000259	-0.02144226600782112	-0.0106052147772316	0.1257728509654805	-0.005809532391479548	0.03335507288612558	-0.05496488607676447	0.09900225457026438	0.09900225457026016	0.01170072739942049	6.46832797565373e-05	0.0158038963329516	-0.002572761310470639	0.1399350603454038	-0.01863335024196447	-0.0426578047923995	-0.2982241273416417	0.3135717025032604	-0.08585887602432901	-0.08477245293531159	57.1769882481113	22.35899526664156	1.650754788860812	-6.860337804179809	-591.7215426913511	-28.36280126703608	-37.75246174410643	-3.658644198277414	-1.913146912336846	-1.021984464370046	11.9697955400213	-0.6885617489782155	3.203346907276497	-5.380938879228362	9.6424073409227	9.642407340923064	0.8872833919295535	0.07114576338074784	1.740947016162182	-0.3233980998402209	1.756274335232822e-08	4.416446855272686e-07	-1.709474596140042e-07	1.169673380209811e-08	1.321564377679385e-07	2.497862527497785e-07	5.341091908416625e-08
0.02	-0.1550444982080922	0.05597028681734417	0.8975950350539694	0.3799736946171532	-0.2619831599075685	-0.2248101628632698	-0.01373902608779543	0.03420398406804973	0.03420398406792499	-0.1743146291507168	0.1292134375122362	-0.0419854746122176	-0.01259662021095707	-0.07413450373306664	-0.03833134510562691	-0.02061123927030381	0.2412769685607607	-0.01374733117887046	0.06359071325619257	-0.1066453396232542	0.194241974472103	0.1942419744721247	0.01798010773877292	0.002324752741817647	0.03527303075246974	-0.006337867866182382	0.1530515245219899	-0.03138016936765078	-0.04781300827300738	-0.3342224804879027	0.3756954229380831	-0.09019063943691502	-0.0909816119454704	77.23840400657899	21.32921612086476	1.127823090092583	-26.81633500149584	-593.3655346546208	-31.82088705289272	-37.7946034026233	-3.643164640765487	-1.468089250140262	-0.9877979331822214	11.22508086704227	-0.8978028184673553	2.819969922280336	-4.906479932013228	9.475228022129615	9.475228022135536	0.3803146709555254	0.4259600027468326	2.175584389204312	-0.4231185047696906	-4.966970994954953e-08	-5.464385378128426e-08	1.286431957143777e-07	4.642193320231555e-08	-2.76429344511493e-07	-1.024083347160886e-07	-1.908046744194686e-08
0.03	-0.1559610575004374	0.05551279179318467	0.8973403103035988	0.3829348028455906	-0.2621654345471838	-0.2240316725100393	-0.01505558724636941	0.0366084465986955	0.03660844659847214	-0.1741180458509264	0.1292525063482386	-0.04152990233358341	-0.01268248662004177	-0.1089253882346571	-0.05327692094812522	-0.03033379974423618	0.3505381051135952	-0.02267162267224267	0.09218443081119262	-0.1566970106120635	0.2861277906959101	0.2861277906959562	0.02126801422142223	0.005226892240203429	0.05547328738305105	-0.01089073027306196	0.1444011298593524	-0.02637337154478167	-0.04558170551850346	-0.3199989118734803	0.3532611196047648	-0.08781904022070901	-0.08520592858384869	70.10234221695909	21.35721014015591	1.342088852119213	-20.79494825653541	-592.3798443604107	-30.66428544899227	-37.86321395647637	-3.359252791249676	-1.524171517631336	-0.9645553826859918	10.71564122251657	-0.884351252569116	2.890609082165808	-5.059028455790138	8.966851401330642	8.966851401333594	0.2927546472443251	0.1829975470254901	1.887023041830255	-0.4796724385453588	-9.694461485091775e-08	6.040893138781186e-08	2.529446125438492e-07	7.394184839482784e-08	-3.848518863878267e-07	-1.062696535077214e-07	-3.4437387927822e-08
0.04	-0.1572179661251611	0.05490256505733301	0.896988345892838	0.3869763246735916	-0.2624358738894121	-0.222964937698938	-0.01687356866964894	0.03991608588654277	0.03991608588645777	-0.1738906382829331	0.1293127279043354	-0.04088337214016763	-0.0128155421191634	-0.1422043701907446	-0.06887768744405919	-0.04005917134837944	0.4573596885913686	-0.03138027167726288	0.1212396047683082	-0.2069293925396891	0.3748773260726631	0.374877326072744	0.02414496111679226	0.006555296684207504	0.07346461368732787	-0.01577568587597356	0.1357507351898936	-0.02136657372271375	-0.0433504027633146	-0.3057753432644366	0.3308268162693168	-0.08544744100577188	-0.07943024522562911	63.04443026726914	21.3767850483625	1.551688734968051	-14.94127919349525	-590.252510204235	-29.39790362239966	-37.95663891384373	-3.340784131661449	-1.599127380830152	-0.9883601592245636	10.73717025203067	-0.8546743207981911	2.912261202703216	-4.942622119775131	8.84797185271951	8.847971852727493	0.2981227534976529	0.111212991870999	1.733798323940014	-0.489537143978005	-1.438080239089765e-07	1.88066692319334e-07	3.736318182702504e-07	1.013132010263565e-07	-4.870854954723441e-07	-1.029488430483391e-07	-4.861627818606338e-08
0.05	-0.1588002558649854	0.0541354244503836	0.8965392146233836	0.3920729169627303	-0.2627907685392246	-0.2216095293226805	-0.01919053280583558	0.04409896662718855	0.04409896662669771	-0.173633598086504	0.12938345261552	-0.04006314084673549	-0.01299643820444848	-0.1739685554144976	-0.08442007795424634	-0.04974975381906699	0.5613727137104203	-0.03941521031862024	0.1494908682525906	-0.2561198103790528	0.4614716844694324	0.4614716844692413	0.02746896306193358	0.007828353492822644	0.09067981671789654	-0.02020310355043457	0.1288215514043137	-0.01924641865069377	-0.04233092925004937	-0.3000927347276101	0.3243700966453981	-0.08366791860892853	-0.07378798824838161	61.13731234787956	20.91223321951533	1.655023239006114	-14.8319626481365	-589.45186740971	-29.33636746034106	-38.07259426379969	-3.05149106896878	-1.512221010321929	-0.956906225878949	10.14544162992833	-0.7504461247048001	2.728823246765482	-4.855707963627268	8.531107046248188	8.531107046203315	0.3804936714954048	0.1711062804336357	1.730102834765542	-0.3893526144416746	-1.294237486491079e-07	1.63642776457355e-07	2.954765016228904e-07	1.042257909077135e-07	-5.457365772366149e-07	-6.298739284396224e-08	-3.66303751884123e-08
0.06	-0.1606916385274397	0.05321677471348929	0.8959936777422181	0.3981920541001734	-0.2632205210733531	-0.219982155446201	-0.02198909239009657	0.04914097879362447	0.04914097879347031	-0.1733371269184389	0.1294740587464357	-0.03906781321446063	-0.01321561017350753	-0.2040229546864534	-0.0991795134330364	-0.05934029369063151	0.6618686583531351	-0.04635184851554549	0.1756327047557192	-0.3032484821226391	0.546703611389854	0.54670361138935	0.03203115526577601	0.01053158050446065	0.1084838814343806	-0.02343086263542419	0.121892367613505	-0.01712626357981666	-0.04131145573400674	-0.2944101261947201	0.317913377019945	-0.08188839621363347	-0.06814573127405989	59.2995094092424	20.44012264119038	1.754335903550564	-14.87278492543366	-587.6364278334465	-29.17284929393557	-38.20918192874522	-2.998826941297642	-1.44253637455314	-0.9683516394000676	10.03375415676407	-0.6350142319125132	2.490375806472327	-4.530272900617706	8.575485557450456	8.575485557450261	0.545760805236667	0.3972470324759932	1.85157066112014	-0.2496054260851082	-1.124606235232212e-07	1.328154215724917e-07	2.089488682440036e-07	1.061085381469579e-07	-6.025526052189804e-07	-2.148317886084877e-08	-2.354279668524997e-08
0.07000000000000001	-0.1628779968352844	0.05215376526685515	0.8953521111417905	0.4053020580864798	-0.2637157832483669	-0.2181019502378226	-0.02524711321376967	0.05502757533901667	0.05502757533901139	-0.1729921593514805	0.1295967538797441	-0.03789344905396171	-0.01346315697221467	-0.2332154152940701	-0.1133562239165821	-0.06901021318553932	0.7598018821650294	-0.05268393793177185	0.2002888363990372	-0.34790492864839	0.6302229189763568	0.6302229189758203	0.03681975838166251	0.01398213750005415	0.1262680361378181	-0.02609673231556656	0.1150410652101193	-0.01485802177456193	-0.04015315910845522	-0.2883534857727176	0.3093480444680036	-0.07997615995379954	-0.06280676747226537	56.76559782414607	20.02286017866238	1.855636793643205	-13.6837404363708	-585.6258433600548	-28.84594611706537	-38.36431626673761	-2.874461013256282	-1.39529435034751	-0.9720113225337782	9.62355677151162	-0.6298335857903939	2.435276921461122	-4.365717432933565	8.181241101193928	8.181241101189718	0.4240597579056196	0.3151356800465104	1.72369698055357	-0.2778555816461631	-1.156107770485281e-07	6.176840845660088e-08	2.447254679738828e-07	1.070758978686791e-07	-6.383465559591284e-07	-5.438016006111063e-08	-3.239851736847513e-08
